<?xml version="1.0" encoding="UTF-8"?><svg xmlns="http://www.w3.org/2000/svg" viewBox="0 0 499 499"><defs><style>.d{fill:#fff;}.e{fill:#1b1593;}</style></defs><g id="a"/><g id="b"><g id="c"><g><circle class="e" cx="249.5" cy="249.5" r="249.5"/><g><path class="d" d="M39.84,162.16h19.63c2.11,0,3.86,.53,5.24,1.58,1.38,1.06,2.32,2.4,2.8,4.02l36.08,121.41c.65,2.19,1.24,4.55,1.77,7.07,.53,2.52,1.04,5.16,1.52,7.92,.57-2.76,1.14-5.42,1.71-7.98,.57-2.56,1.22-4.9,1.95-7.01l41.08-121.41c.49-1.38,1.44-2.66,2.86-3.84,1.42-1.18,3.15-1.77,5.18-1.77h6.83c2.11,0,3.84,.53,5.18,1.58,1.34,1.06,2.3,2.4,2.86,4.02l40.84,121.41c1.46,4.23,2.76,9.06,3.9,14.51,.49-2.68,.93-5.24,1.34-7.68,.41-2.44,.93-4.71,1.58-6.83l36.2-121.41c.41-1.46,1.32-2.76,2.74-3.9,1.42-1.14,3.15-1.71,5.18-1.71h18.41l-54.49,174.68h-21.21l-44.25-133.23c-.9-2.52-1.71-5.44-2.44-8.78-.41,1.63-.79,3.19-1.16,4.69-.37,1.5-.75,2.86-1.16,4.08l-44.49,133.23h-21.21L39.84,162.16Z"/><path class="d" d="M459.16,249.56c0,13.08-2.07,24.99-6.22,35.72s-10,19.91-17.55,27.55c-7.56,7.64-16.62,13.55-27.18,17.74-10.57,4.19-22.27,6.28-35.11,6.28h-65.34V162.16h65.34c12.84,0,24.54,2.09,35.11,6.28,10.56,4.19,19.62,10.12,27.18,17.8,7.56,7.68,13.41,16.88,17.55,27.61s6.22,22.63,6.22,35.72Zm-24.26,0c0-10.73-1.46-20.31-4.39-28.77-2.92-8.45-7.07-15.6-12.43-21.45-5.36-5.85-11.87-10.32-19.5-13.41-7.64-3.09-16.13-4.63-25.48-4.63h-41.57v136.4h41.57c9.34,0,17.84-1.54,25.48-4.63,7.64-3.09,14.14-7.54,19.5-13.35,5.36-5.81,9.51-12.94,12.43-21.39,2.93-8.45,4.39-18.04,4.39-28.77Z"/></g><rect class="d" x="22.75" y="237" width="453" height="25"/><g><rect class="d" x="23.5" y="109.5" width="452" height="25"/><rect class="d" x="23.5" y="364.5" width="452" height="25"/></g></g></g></g></svg>