<svg xmlns="http://www.w3.org/2000/svg" width="364.804" height="239.968" viewBox="0 0 364.804 239.968">
  <g id="Illustration" transform="translate(0 -0.001)">
    <path id="Path_2" data-name="Path 2" d="M558.99,273.111l2.817-11.36-6.944-1.712-2.756,11.052c-1.815-.454-3.681-.856-5.539-1.3l2.774-11.129-6.909-1.712L539.6,268.291q-2.26-.514-4.409-1.036l-9.528-2.38-1.841,7.38s5.017,1.147,5.017,1.25c2.8.7,3.3,2.568,3.219,4.015l-3.227,12.936a5.031,5.031,0,0,1,.719.231l-.728-.18-4.52,18.115a2.5,2.5,0,0,1-3.151,1.644h-.017c.069.1-5.025-1.25-5.025-1.25l-3.424,7.91,8.989,2.243c1.712.419,3.313.856,4.923,1.267l-2.86,11.48,6.9,1.712,2.834-11.36c1.832.5,3.673.967,5.5,1.43l-2.825,11.309,6.909,1.712,2.86-11.463c11.78,2.226,20.649,1.327,24.373-9.323,3.005-8.561-.146-13.526-6.352-16.754,4.512-1.044,7.919-4.007,8.826-10.145l.077-.034C574.091,280.62,567.7,276.116,558.99,273.111Zm-1.935,38.028c-2.131,8.561-16.582,3.938-21.265,2.782l3.793-15.213c4.665,1.173,19.69,3.484,17.456,12.431Zm2.14-22.258c-1.952,7.808-13.971,3.835-17.875,2.868l3.424-13.792c3.9.967,16.463,2.782,14.4,10.924Z" transform="translate(-374.084 -233.808)" fill="#00b4db"/>
    <path id="Path_3" data-name="Path 3" d="M512.172,338.482A63.83,63.83,0,1,1,576,274.651,63.83,63.83,0,0,1,512.172,338.482Zm0-125.949a62.118,62.118,0,1,0,62.118,62.118A62.118,62.118,0,0,0,512.172,212.533Zm-2.142,101.9-8.571-2.124L504.286,301c-1.281-.323-2.569-.657-3.847-1l-2.83,11.344-8.562-2.124,2.861-11.488-1.005-.262c-1-.263-2.023-.53-3.085-.79l-9.972-2.488,4.118-9.513.713.189c.986.262,2.027.533,2.895.755l-.12-.181,2.277.683a1.661,1.661,0,0,0,2.1-1.08l4.312-17.287h0l3.414-13.684c.068-1.606-.776-2.607-2.576-3.058l-1.922-.482.047-.031c-.909-.22-2.05-.488-3.125-.733l-.851-.194,2.259-9.058,10.359,2.587q1.744.428,3.574.845l2.837-11.358,8.57,2.124-2.771,11.12q.731.171,1.462.337c.809.186,1.615.371,2.413.563l2.757-11.053,8.6,2.122-2.835,11.436c6.8,2.437,15.134,6.817,13.68,16.565l-.069.465-.082.036c-.849,4.936-3.354,8.222-7.46,9.8,6,3.832,7.636,9.345,5.022,16.793C533.318,304.7,522.824,304.7,512.9,302.923Zm-6.494-3.373,5.246,1.3,2.848-11.418.794.15c13.552,2.56,20.334.021,23.406-8.765,2.556-7.283.669-12.275-5.939-15.712l-2.059-1.071,2.26-.523c4.722-1.093,7.4-4.179,8.173-9.436l.069-.466.07-.031c.767-6.571-3.372-11.054-13.345-14.492l-.74-.255,2.8-11.289-5.282-1.3-2.757,11.055-.831-.208c-1.057-.265-2.132-.511-3.212-.759-.771-.177-1.546-.355-2.318-.54l-.84-.2,2.775-11.136-5.247-1.3-2.83,11.327-.817-.186c-1.512-.344-2.989-.687-4.423-1.039l-8.7-2.174-1.422,5.7a41.137,41.137,0,0,1,4.211,1.066c2.585.658,3.983,2.439,3.838,4.889l-.024.157L496.2,266.565l.01,0-.2.772-.04-.01-.016.049.047.012-4.52,18.115a3.371,3.371,0,0,1-4.242,2.257l0-.008c-.655-.088-1.868-.4-4.291-1.046l-2.73,6.307,8.01,2c1.067.262,2.095.53,3.108.8.609.159,1.214.318,1.819.472l.825.21-2.858,11.475,5.239,1.3,2.838-11.378.843.228c1.818.493,3.664.972,5.487,1.425l.832.207Zm11.348-17.321a48.066,48.066,0,0,1-11.609-1.962c-.506-.133-.958-.252-1.343-.347l-.833-.206,4.207-16.878.832.209c.47.118,1.047.248,1.7.4,4.764,1.073,12.737,2.869,15.6,7.511a6.827,6.827,0,0,1,.977,4.5h.068l-.247,1.063a6.735,6.735,0,0,1-3.167,4.336,12.177,12.177,0,0,1-6.183,1.379Zm-11.71-3.758.536.14c4,1.051,12.314,3.235,16.484.765a4.929,4.929,0,0,0,2.247-2.818l.115-.459a5.281,5.281,0,0,0-.576-4.249c-2.482-4.028-10.31-5.791-14.515-6.738l-.908-.206ZM518,271.151a38.084,38.084,0,0,1-9.39-1.593c-.432-.115-.818-.218-1.145-.3l-.831-.206,3.837-15.454.831.206c.385.1.857.2,1.391.318,3.908.863,10.449,2.307,12.928,6.327a6.436,6.436,0,0,1,.9,4.254h.066l-.214,1.064a6.45,6.45,0,0,1-3.018,4.169A10.549,10.549,0,0,1,518,271.15Zm-9.294-3.34.345.092c3.464.921,9.912,2.638,13.439.558a4.559,4.559,0,0,0,1.977-2.327l.2-.785a4.951,4.951,0,0,0-.5-4c-2.1-3.4-8.436-4.8-11.84-5.554l-.6-.133Z" transform="translate(-342.019 -210.82)" fill="#3f3d56"/>
    <path id="Path_4" data-name="Path 4" d="M640.125,432.125a5.048,5.048,0,0,1,8.1-.177L665.2,426.18l-2.353,9.013-15.757,4.1a5.072,5.072,0,0,1-6.96-7.164Z" transform="translate(-437.118 -318.144)" fill="#ffb8b8"/>
    <path id="Path_5" data-name="Path 5" d="M905.327,637.865a123.554,123.554,0,0,1,10.226-39q2.308-5.156,5.08-10.084a.753.753,0,0,0-1.3-.76A125.264,125.264,0,0,0,905.4,626.479q-1.046,5.653-1.573,11.386C903.733,638.828,905.239,638.822,905.327,637.865Z" transform="translate(-569.006 -398.616)" fill="#e6e6e6"/>
    <circle id="Ellipse_1" data-name="Ellipse 1" cx="9.531" cy="9.531" r="9.531" transform="translate(345.741 173.519)" fill="#e6e6e6"/>
    <path id="Path_6" data-name="Path 6" d="M907.8,655.9a80.158,80.158,0,0,1,6.634-25.3q1.5-3.345,3.3-6.542a.489.489,0,0,0-.843-.493,81.265,81.265,0,0,0-9.043,24.947q-.679,3.667-1.021,7.386C906.763,656.526,907.74,656.522,907.8,655.9Z" transform="translate(-570.502 -416.399)" fill="#e6e6e6"/>
    <circle id="Ellipse_2" data-name="Ellipse 2" cx="6.183" cy="6.183" r="6.183" transform="translate(343.407 196.86)" fill="#e6e6e6"/>
    <path id="Path_7" data-name="Path 7" d="M893.673,655.672a80.158,80.158,0,0,1-10.329-24.028q-.877-3.558-1.425-7.186a.489.489,0,0,0-.968.13,81.265,81.265,0,0,0,8.214,25.232q1.72,3.309,3.738,6.452c.339.529,1.107-.075.77-.6Z" transform="translate(-557.609 -416.754)" fill="#e6e6e6"/>
    <circle id="Ellipse_3" data-name="Ellipse 3" cx="6.183" cy="6.183" r="6.183" transform="translate(317.15 196.426)" fill="#e6e6e6"/>
    <path id="Path_8" data-name="Path 8" d="M798.442,484.221a5.044,5.044,0,0,0-2.216-7.411l1.3-17.879-8.128,4.551.012,16.281a5.072,5.072,0,0,0,9.033,4.458Z" transform="translate(-511.845 -334.466)" fill="#ffb8b8"/>
    <path id="Path_9" data-name="Path 9" d="M794.918,366.17l2.223,56.9-9.03-.5-2.007-59.7,1.9-.9a4.849,4.849,0,0,1,6.909,4.2Z" transform="translate(-510.344 -285.917)" fill="#00b4db"/>
    <path id="Path_10" data-name="Path 10" d="M502.6,442.668h-6.15l-2.926-23.722H502.6Z" transform="translate(-245.946 -208.782)" fill="#ffb8b8"/>
    <path id="Path_11" data-name="Path 11" d="M483.176,462.731h11.861V470.2H475.708A7.468,7.468,0,0,1,483.176,462.731Z" transform="translate(-237.07 -230.602)" fill="#2f2e41"/>
    <path id="Path_12" data-name="Path 12" d="M595.532,430.2l-5.581,2.584-12.621-20.3,8.237-3.813Z" transform="translate(-287.713 -203.661)" fill="#ffb8b8"/>
    <path id="Path_13" data-name="Path 13" d="M7.468,0H19.329V7.468H0A7.468,7.468,0,0,1,7.468,0Z" transform="translate(290.737 232.512) rotate(-24.841)" fill="#2f2e41"/>
    <path id="Path_14" data-name="Path 14" d="M718.755,482.854l6.343,72.382,8.528-1,6.3-66.117,34.832,63.107,9.03-2.508s-29.064-86.936-31.321-94.21C750,446.532,730.4,443.469,730.4,443.469l-.753-.753C721.224,454.053,717.851,468.762,718.755,482.854Z" transform="translate(-476.709 -326.386)" fill="#2f2e41"/>
    <circle id="Ellipse_4" data-name="Ellipse 4" cx="12.321" cy="12.321" r="12.321" transform="translate(263.515 45.134)" fill="#ffb8b8"/>
    <path id="Path_15" data-name="Path 15" d="M766.256,364.6l-8.563,44.632s-13.013-2.6-17.648-5.729c-1.836-1.244-3.5-2.528-4.906-3.692-.276-.226-.537-.451-.792-.667-2.318-1.982-3.742-3.456-3.742-3.456s.742-3.637,1.65-7.941c1.013-4.821,2.242-10.484,2.87-12.8,1.38-5.072,6.115-10.981,9.807-15a10.9,10.9,0,0,1,10.771-3.19l6.682,1.726A5.289,5.289,0,0,1,766.256,364.6Z" transform="translate(-482.685 -283.374)" fill="#00b4db"/>
    <path id="Path_16" data-name="Path 16" d="M745.548,411.278s-4.6,9.571-11.2,15.049c-2.318-1.982-3.742-3.456-3.742-3.456s.742-3.637,1.65-7.941C737.783,412.011,743.481,410.17,745.548,411.278Z" transform="translate(-482.685 -310.556)" opacity="0.2"/>
    <path id="Path_17" data-name="Path 17" d="M721.234,375.9a8.188,8.188,0,0,0-1.42-.564,6.268,6.268,0,0,0-5.792,1.334l-27.068,19.827-21.528,7.241,3.89,9.2,32.093-7.838,21.285-18.916a6.4,6.4,0,0,0-1.461-10.285Z" transform="translate(-450.203 -292.693)" fill="#00b4db"/>
    <path id="Path_18" data-name="Path 18" d="M774.6,317.236c1.754-2.625,3.138-6.264,1.207-8.762-1.906-2.465-5.665-2.1-8.583-3.193-4.065-1.519-6.423-6.3-5.688-10.573a12.544,12.544,0,0,1,8.259-9.274,17.882,17.882,0,0,1,12.708.692A19.406,19.406,0,0,1,793.434,297.2c1.774,5.04.826,11.09-2.854,14.964-3.945,4.153-10.136,5.26-15.864,5.192" transform="translate(-498.031 -247.573)" fill="#2f2e41"/>
    <path id="Path_19" data-name="Path 19" d="M822.864,320.28c.5,2.8,3.579,4.4,6.406,4.748s5.753-.1,8.506.637c4.853,1.3,8.054,5.964,9.816,10.668s2.543,9.781,4.832,14.253,6.727,8.413,11.733,7.995a12.908,12.908,0,0,1-24.277-.787c-1.839-5.677.272-12.447-2.944-17.474-1.78-2.782-4.852-4.418-7.815-5.876s-6.073-2.954-8.059-5.592-2.383-6.8.065-9.02" transform="translate(-526.95 -265.145)" fill="#2f2e41"/>
    <path id="Path_20" data-name="Path 20" d="M785.668,687.777H624.993a.6.6,0,1,1,0-1.195H785.668a.6.6,0,0,1,0,1.195Z" transform="translate(-429.755 -447.917)" fill="#3f3d56"/>
    <path id="Path_21" data-name="Path 21" d="M397.668,687.777H236.993a.6.6,0,1,1,0-1.195H397.668a.6.6,0,0,1,0,1.195Z" transform="translate(-236.395 -447.917)" fill="#3f3d56"/>
    <path id="Path_22" data-name="Path 22" d="M198.887,439.959l5.88-1.8-4.162-23.537-8.678,2.663Z" transform="translate(-95.647 -206.625)" fill="#a0616a"/>
    <path id="Path_23" data-name="Path 23" d="M0,0H19.329V7.468H7.468A7.468,7.468,0,0,1,0,0H0Z" transform="translate(122.134 233.511) rotate(162.939)" fill="#2f2e41"/>
    <path id="Path_24" data-name="Path 24" d="M101.8,441.837h6.15l2.926-23.722H101.8Z" transform="translate(-50.733 -208.368)" fill="#a0616a"/>
    <path id="Path_25" data-name="Path 25" d="M0,0H19.329V7.468H7.468A7.468,7.468,0,0,1,0,0H0Z" transform="translate(69.079 239.18) rotate(179.997)" fill="#2f2e41"/>
    <path id="Path_26" data-name="Path 26" d="M339.763,452.5a4.6,4.6,0,0,1,.159-7.046l4.768-60.045,9.7,2.423L346.623,446.4a4.621,4.621,0,0,1-6.861,6.1Z" transform="translate(-287.128 -297.824)" fill="#a0616a"/>
    <circle id="Ellipse_5" data-name="Ellipse 5" cx="12.321" cy="12.321" r="12.321" transform="translate(63.244 40.152)" fill="#a0616a"/>
    <path id="Path_27" data-name="Path 27" d="M351.285,369.98a10.981,10.981,0,0,1,.136-13.4c2.058-2.509,5.5-4.517,11.25-4.517A23.571,23.571,0,0,1,383.8,364.214s6.34,11.623,2.642,22.19-3.7,11.623-3.7,11.623l-24.3-2.113S362.544,385.437,351.285,369.98Z" transform="translate(-292.548 -281.208)" fill="#ccc"/>
    <path id="Path_28" data-name="Path 28" d="M338.543,385.974l5.236-17.129a8.19,8.19,0,0,1,11.587-4.885h0a8.205,8.205,0,0,1,3.745,10.572l-6.656,15.159Z" transform="translate(-287.301 -286.683)" fill="#ccc"/>
    <path id="Path_29" data-name="Path 29" d="M373.717,438.425l20.605,106.724-11.1,3.17L356.281,478.05,344.129,549.9l-11.623,1.585s-5.1-95.072,17.436-112.536Z" transform="translate(-284.045 -324.247)" fill="#2f2e41"/>
    <path id="Path_30" data-name="Path 30" d="M432.181,403.7a5.286,5.286,0,0,0-.483.677l-24.849,1.2-4.785-14.608-8.308,3.949,7.82,21.757,30.732-6.01a5.265,5.265,0,1,0-.126-6.97Z" transform="translate(-314.816 -300.6)" fill="#a0616a"/>
    <path id="Path_31" data-name="Path 31" d="M386.237,370.258a8.19,8.19,0,0,1,8.645-9.131h0a8.2,8.2,0,0,1,7.679,8.174v16.555l-14.231,2.19Z" transform="translate(-311.041 -285.717)" fill="#ccc"/>
    <path id="Path_32" data-name="Path 32" d="M373.261,312.294c-1.849-.008-3.276-1.955-3.193-3.8a6.289,6.289,0,0,1,2.819-4.561,30.572,30.572,0,0,1,4.915-2.552,10.48,10.48,0,0,0,4.349-3.335,7.382,7.382,0,0,0,.513-6.774,10.87,10.87,0,0,0-4.682-5.129,14.391,14.391,0,0,0-10.242-1.619c-3.456.758-8.605,2.857-10.63,5.758L355,296.027c-2.151,2.587-.486,6.428.837,9.521a12.3,12.3,0,0,0,7.315,6.527,17.955,17.955,0,0,0,9.953.3" transform="translate(-294.986 -247.388)" fill="#2f2e41"/>
    <path id="Path_33" data-name="Path 33" d="M332.8,298.481a7.52,7.52,0,0,0-4.106-2.922A12.9,12.9,0,0,0,311.721,307.1c-.172,3.168.82,6.265,1.4,9.383s.7,6.562-1.021,9.228c-1.31,2.031-3.493,3.309-5.649,4.4a10.9,10.9,0,0,1-5.745,1.582c-2.006-.181-4.021-1.77-3.968-3.783a16.081,16.081,0,0,0-1.345,4.555,5.431,5.431,0,0,0,1.393,4.4c1.662,1.6,4.3,1.487,6.579,1.141,4.945-.75,9.952-2.155,13.858-5.277s6.5-8.265,5.47-13.159a32.348,32.348,0,0,0-2.256-5.834,10.859,10.859,0,0,1-1.078-6.082,7.392,7.392,0,0,1,3.759-5.007,9.833,9.833,0,0,1,6.282-.953c1.4.23,3.157.588,3.99-.566a2.261,2.261,0,0,0-.047-2.412,6.647,6.647,0,0,0-1.8-1.786" transform="translate(-265.784 -252.718)" fill="#2f2e41"/>
  </g>
</svg>
